<svg width="28" height="29" viewBox="0 0 28 29" fill="none" xmlns="http://www.w3.org/2000/svg">
<g clip-path="url(#clip0)">
<path fill-rule="evenodd" clip-rule="evenodd" d="M19.72 3.01H15.58V2.59C15.59 1.43 14.65 0.5 13.5 0.5C12.35 0.5 11.41 1.43 11.41 2.59V3.02H7.28C5.47 3.01 4 4.48 4 6.29V6.79H23V6.29C23 4.48 21.53 3.01 19.72 3.01ZM4 24.74C4 26.55 5.47 28.02 7.28 28.02H19.73C21.54 28.02 23.01 26.55 23.01 24.74V9.01H4V24.74ZM22 10.01V24.73C22 25.99 20.98 27.01 19.72 27.01H7.28C6.02 27.01 5 25.99 5 24.74V10.01H22ZM14 23.51C14 23.79 13.78 24.01 13.5 24.01C13.22 24.01 13 23.79 13 23.51V13.51C13 13.24 13.22 13.01 13.5 13.01C13.78 13.01 14 13.23 14 13.51V23.51ZM9 24.01C9.28 24.01 9.5 23.79 9.5 23.51V13.51C9.5 13.23 9.28 13.01 9 13.01C8.72 13.01 8.5 13.23 8.5 13.51V23.51C8.5 23.79 8.72 24.01 9 24.01ZM18.5 23.51C18.5 23.79 18.28 24.01 18 24.01C17.72 24.01 17.5 23.79 17.5 23.51V13.51C17.5 13.23 17.72 13.01 18 13.01C18.28 13.01 18.5 13.23 18.5 13.51V23.51Z" fill="#F1FAEE"/>
</g>
<defs>
<clipPath id="clip0">
<rect width="28" height="28" fill="white" transform="translate(0 0.5)"/>
</clipPath>
</defs>
</svg>
