<svg width="28" height="29" viewBox="0 0 28 29" fill="none" xmlns="http://www.w3.org/2000/svg">
<path fill-rule="evenodd" clip-rule="evenodd" d="M23.15 5.5H4.85C3.28 5.5 2 6.78 2 8.35V20.88C2 22.45 3.28 23.73 4.85 23.73H23.15C24.72 23.73 26 22.45 26 20.88V8.35C26 6.78 24.72 5.5 23.15 5.5ZM25 20.88C25 21.9 24.17 22.73 23.15 22.73H4.85C3.83 22.73 3 21.9 3 20.88V8.35C3 7.33 3.83 6.5 4.85 6.5H23.15C24.17 6.5 25 7.33 25 8.35V20.88ZM8.81001 13.65C9.8704 13.65 10.73 12.7904 10.73 11.73C10.73 10.6696 9.8704 9.81 8.81001 9.81C7.74963 9.81 6.89001 10.6696 6.89001 11.73C6.89001 12.7904 7.74963 13.65 8.81001 13.65ZM16.58 12.69C16.83 12.26 17.44 12.26 17.69 12.69L21.01 18.45C21.26 18.88 20.95 19.41 20.46 19.41H14.23H13.81H9.78999C9.29999 19.41 8.98999 18.88 9.23999 18.45L11.46 14.61C11.71 14.18 12.32 14.18 12.57 14.61L14.02 17.13L16.58 12.69Z" fill="#F1FAEE"/>
</svg>
