<svg width="28" height="29" viewBox="0 0 28 29" fill="none" xmlns="http://www.w3.org/2000/svg">
<g clip-path="url(#clip0)">
<path d="M23.27 5.45H15.64V5.05C15.65 4.19 14.95 3.5 14.1 3.5C13.25 3.5 12.55 4.19 12.55 5.05V5.46H4.73C3.22 5.45 2 6.68 2 8.18V8.42V8.68V21.53C2 23.03 3.22 24.26 4.73 24.26H6.17V24.93C6.17 25.78 6.86 26.48 7.72 26.48C8.58 26.48 9.27 25.79 9.27 24.93V24.26H18.94V24.93C18.94 25.78 19.63 26.48 20.49 26.48C21.34 26.48 22.04 25.79 22.04 24.93V24.26H23.28C24.78 24.26 26.01 23.04 26.01 21.53V8.68V8.42V8.18C26 6.68 24.78 5.45 23.27 5.45ZM25 21.53C25 22.48 24.23 23.26 23.27 23.26H4.73C3.77 23.26 3 22.49 3 21.53V9.42H25V21.53Z" fill="#F1FAEE"/>
</g>
<defs>
<clipPath id="clip0">
<rect width="24" height="22.97" fill="white" transform="translate(2 3.5)"/>
</clipPath>
</defs>
</svg>
