<svg width="28" height="29" viewBox="0 0 28 29" fill="none" xmlns="http://www.w3.org/2000/svg">
<path fill-rule="evenodd" clip-rule="evenodd" d="M6.86 1.5H21.49C23.07 1.5 24.35 2.78 24.35 4.36V17.78L15.56 26.57H6.86C5.28 26.57 4 25.29 4 23.71V4.36C4 2.78 5.28 1.5 6.86 1.5ZM5 23.71C5 24.74 5.83 25.58 6.86 25.58H15.14L15.35 25.37V19.94C15.35 18.64 16.41 17.58 17.71 17.58H23.14L23.35 17.37V4.36C23.35 3.33 22.52 2.5 21.49 2.5H6.86C5.83 2.5 5 3.33 5 4.36V23.71ZM19.61 8.16H9.21997C8.93997 8.16 8.71997 7.94 8.71997 7.66C8.71997 7.38 8.93997 7.16 9.21997 7.16H19.61C19.89 7.16 20.11 7.38 20.11 7.66C20.11 7.94 19.89 8.16 19.61 8.16ZM9.21997 12.17H19.61C19.89 12.17 20.11 11.95 20.11 11.67C20.11 11.39 19.89 11.17 19.61 11.17H9.21997C8.93997 11.17 8.71997 11.39 8.71997 11.67C8.71997 11.95 8.93997 12.17 9.21997 12.17ZM19.61 15.17C19.89 15.17 20.11 15.39 20.11 15.67C20.11 15.95 19.88 16.17 19.61 16.17H9.21997C8.93997 16.17 8.71997 15.95 8.71997 15.67C8.71997 15.39 8.93997 15.17 9.21997 15.17H19.61Z" fill="#F1FAEE"/>
</svg>
