<svg width="28" height="29" viewBox="0 0 28 29" fill="none" xmlns="http://www.w3.org/2000/svg">
<path fill-rule="evenodd" clip-rule="evenodd" d="M2.67 4.5H25.33C25.7 4.5 26 4.8 26 5.17V8.83C26 9.2 25.7 9.5 25.33 9.5H25.3V21.5C25.3 22.88 24.18 24 22.8 24H5.2C3.82 24 2.7 22.88 2.7 21.5V9.5H2.67C2.3 9.5 2 9.2 2 8.84V5.17C2 4.8 2.3 4.5 2.67 4.5ZM22.8 23C23.63 23 24.3 22.33 24.3 21.5V9.5H3.7V21.5C3.7 22.33 4.37 23 5.2 23H22.8ZM16.7 13.94H11.3C11.02 13.94 10.8 13.71 10.8 13.44C10.8 13.16 11.02 12.94 11.3 12.94H16.7C16.98 12.94 17.2 13.16 17.2 13.44C17.2 13.72 16.98 13.94 16.7 13.94Z" fill="#F1FAEE"/>
</svg>
